<?xml version="1.0" encoding="utf-8" standalone="no"?>
<!DOCTYPE svg PUBLIC "-//W3C//DTD SVG 1.1//EN"
  "http://www.w3.org/Graphics/SVG/1.1/DTD/svg11.dtd">
<svg height="504pt" version="1.1" viewBox="0 0 864 504" width="864pt" xmlns="http://www.w3.org/2000/svg" xmlns:xlink="http://www.w3.org/1999/xlink">
 <metadata>
  <rdf:RDF xmlns:cc="http://creativecommons.org/ns#" xmlns:dc="http://purl.org/dc/elements/1.1/" xmlns:rdf="http://www.w3.org/1999/02/22-rdf-syntax-ns#">
   <cc:Work>
    <dc:type rdf:resource="http://purl.org/dc/dcmitype/StillImage"/>
    <dc:date>2022-11-30T16:33:35.041586</dc:date>
    <dc:format>image/svg+xml</dc:format>
    <dc:creator>
     <cc:Agent>
      <dc:title>Matplotlib v3.4.1, https://matplotlib.org/</dc:title>
     </cc:Agent>
    </dc:creator>
   </cc:Work>
  </rdf:RDF>
 </metadata>
 <defs>
  <style type="text/css">*{stroke-linecap:butt;stroke-linejoin:round;}</style>
 </defs>
 <g id="figure_1">
  <g id="patch_1">
   <path d="M 0 504 
L 864 504 
L 864 0 
L 0 0 
z
" style="fill:none;"/>
  </g>
  <g id="axes_1">
   <g id="patch_2">
    <path d="M 108 441 
L 777.6 441 
L 777.6 60.48 
L 108 60.48 
z
" style="fill:#ffffff;"/>
   </g>
   <g id="matplotlib.axis_1">
    <g id="xtick_1">
     <g id="line2d_1">
      <defs>
       <path d="M 0 0 
L 0 3.5 
" id="m4a4e047a37" style="stroke:#000000;stroke-width:0.8;"/>
      </defs>
      <g>
       <use style="stroke:#000000;stroke-width:0.8;" x="138.436364" xlink:href="#m4a4e047a37" y="441"/>
      </g>
     </g>
     <g id="text_1">
      <!-- 0 -->
      <g transform="translate(135.255114 455.598437)scale(0.1 -0.1)">
       <defs>
        <path d="M 2034 4250 
Q 1547 4250 1301 3770 
Q 1056 3291 1056 2328 
Q 1056 1369 1301 889 
Q 1547 409 2034 409 
Q 2525 409 2770 889 
Q 3016 1369 3016 2328 
Q 3016 3291 2770 3770 
Q 2525 4250 2034 4250 
z
M 2034 4750 
Q 2819 4750 3233 4129 
Q 3647 3509 3647 2328 
Q 3647 1150 3233 529 
Q 2819 -91 2034 -91 
Q 1250 -91 836 529 
Q 422 1150 422 2328 
Q 422 3509 836 4129 
Q 1250 4750 2034 4750 
z
" id="DejaVuSans-30" transform="scale(0.015625)"/>
       </defs>
       <use xlink:href="#DejaVuSans-30"/>
      </g>
     </g>
    </g>
    <g id="xtick_2">
     <g id="line2d_2">
      <g>
       <use style="stroke:#000000;stroke-width:0.8;" x="230.667769" xlink:href="#m4a4e047a37" y="441"/>
      </g>
     </g>
     <g id="text_2">
      <!-- 20 -->
      <g transform="translate(224.305269 455.598437)scale(0.1 -0.1)">
       <defs>
        <path d="M 1228 531 
L 3431 531 
L 3431 0 
L 469 0 
L 469 531 
Q 828 903 1448 1529 
Q 2069 2156 2228 2338 
Q 2531 2678 2651 2914 
Q 2772 3150 2772 3378 
Q 2772 3750 2511 3984 
Q 2250 4219 1831 4219 
Q 1534 4219 1204 4116 
Q 875 4013 500 3803 
L 500 4441 
Q 881 4594 1212 4672 
Q 1544 4750 1819 4750 
Q 2544 4750 2975 4387 
Q 3406 4025 3406 3419 
Q 3406 3131 3298 2873 
Q 3191 2616 2906 2266 
Q 2828 2175 2409 1742 
Q 1991 1309 1228 531 
z
" id="DejaVuSans-32" transform="scale(0.015625)"/>
       </defs>
       <use xlink:href="#DejaVuSans-32"/>
       <use x="63.623047" xlink:href="#DejaVuSans-30"/>
      </g>
     </g>
    </g>
    <g id="xtick_3">
     <g id="line2d_3">
      <g>
       <use style="stroke:#000000;stroke-width:0.8;" x="322.899174" xlink:href="#m4a4e047a37" y="441"/>
      </g>
     </g>
     <g id="text_3">
      <!-- 40 -->
      <g transform="translate(316.536674 455.598437)scale(0.1 -0.1)">
       <defs>
        <path d="M 2419 4116 
L 825 1625 
L 2419 1625 
L 2419 4116 
z
M 2253 4666 
L 3047 4666 
L 3047 1625 
L 3713 1625 
L 3713 1100 
L 3047 1100 
L 3047 0 
L 2419 0 
L 2419 1100 
L 313 1100 
L 313 1709 
L 2253 4666 
z
" id="DejaVuSans-34" transform="scale(0.015625)"/>
       </defs>
       <use xlink:href="#DejaVuSans-34"/>
       <use x="63.623047" xlink:href="#DejaVuSans-30"/>
      </g>
     </g>
    </g>
    <g id="xtick_4">
     <g id="line2d_4">
      <g>
       <use style="stroke:#000000;stroke-width:0.8;" x="415.130579" xlink:href="#m4a4e047a37" y="441"/>
      </g>
     </g>
     <g id="text_4">
      <!-- 60 -->
      <g transform="translate(408.768079 455.598437)scale(0.1 -0.1)">
       <defs>
        <path d="M 2113 2584 
Q 1688 2584 1439 2293 
Q 1191 2003 1191 1497 
Q 1191 994 1439 701 
Q 1688 409 2113 409 
Q 2538 409 2786 701 
Q 3034 994 3034 1497 
Q 3034 2003 2786 2293 
Q 2538 2584 2113 2584 
z
M 3366 4563 
L 3366 3988 
Q 3128 4100 2886 4159 
Q 2644 4219 2406 4219 
Q 1781 4219 1451 3797 
Q 1122 3375 1075 2522 
Q 1259 2794 1537 2939 
Q 1816 3084 2150 3084 
Q 2853 3084 3261 2657 
Q 3669 2231 3669 1497 
Q 3669 778 3244 343 
Q 2819 -91 2113 -91 
Q 1303 -91 875 529 
Q 447 1150 447 2328 
Q 447 3434 972 4092 
Q 1497 4750 2381 4750 
Q 2619 4750 2861 4703 
Q 3103 4656 3366 4563 
z
" id="DejaVuSans-36" transform="scale(0.015625)"/>
       </defs>
       <use xlink:href="#DejaVuSans-36"/>
       <use x="63.623047" xlink:href="#DejaVuSans-30"/>
      </g>
     </g>
    </g>
    <g id="xtick_5">
     <g id="line2d_5">
      <g>
       <use style="stroke:#000000;stroke-width:0.8;" x="507.361983" xlink:href="#m4a4e047a37" y="441"/>
      </g>
     </g>
     <g id="text_5">
      <!-- 80 -->
      <g transform="translate(500.999483 455.598437)scale(0.1 -0.1)">
       <defs>
        <path d="M 2034 2216 
Q 1584 2216 1326 1975 
Q 1069 1734 1069 1313 
Q 1069 891 1326 650 
Q 1584 409 2034 409 
Q 2484 409 2743 651 
Q 3003 894 3003 1313 
Q 3003 1734 2745 1975 
Q 2488 2216 2034 2216 
z
M 1403 2484 
Q 997 2584 770 2862 
Q 544 3141 544 3541 
Q 544 4100 942 4425 
Q 1341 4750 2034 4750 
Q 2731 4750 3128 4425 
Q 3525 4100 3525 3541 
Q 3525 3141 3298 2862 
Q 3072 2584 2669 2484 
Q 3125 2378 3379 2068 
Q 3634 1759 3634 1313 
Q 3634 634 3220 271 
Q 2806 -91 2034 -91 
Q 1263 -91 848 271 
Q 434 634 434 1313 
Q 434 1759 690 2068 
Q 947 2378 1403 2484 
z
M 1172 3481 
Q 1172 3119 1398 2916 
Q 1625 2713 2034 2713 
Q 2441 2713 2670 2916 
Q 2900 3119 2900 3481 
Q 2900 3844 2670 4047 
Q 2441 4250 2034 4250 
Q 1625 4250 1398 4047 
Q 1172 3844 1172 3481 
z
" id="DejaVuSans-38" transform="scale(0.015625)"/>
       </defs>
       <use xlink:href="#DejaVuSans-38"/>
       <use x="63.623047" xlink:href="#DejaVuSans-30"/>
      </g>
     </g>
    </g>
    <g id="xtick_6">
     <g id="line2d_6">
      <g>
       <use style="stroke:#000000;stroke-width:0.8;" x="599.593388" xlink:href="#m4a4e047a37" y="441"/>
      </g>
     </g>
     <g id="text_6">
      <!-- 100 -->
      <g transform="translate(590.049638 455.598437)scale(0.1 -0.1)">
       <defs>
        <path d="M 794 531 
L 1825 531 
L 1825 4091 
L 703 3866 
L 703 4441 
L 1819 4666 
L 2450 4666 
L 2450 531 
L 3481 531 
L 3481 0 
L 794 0 
L 794 531 
z
" id="DejaVuSans-31" transform="scale(0.015625)"/>
       </defs>
       <use xlink:href="#DejaVuSans-31"/>
       <use x="63.623047" xlink:href="#DejaVuSans-30"/>
       <use x="127.246094" xlink:href="#DejaVuSans-30"/>
      </g>
     </g>
    </g>
    <g id="xtick_7">
     <g id="line2d_7">
      <g>
       <use style="stroke:#000000;stroke-width:0.8;" x="691.824793" xlink:href="#m4a4e047a37" y="441"/>
      </g>
     </g>
     <g id="text_7">
      <!-- 120 -->
      <g transform="translate(682.281043 455.598437)scale(0.1 -0.1)">
       <use xlink:href="#DejaVuSans-31"/>
       <use x="63.623047" xlink:href="#DejaVuSans-32"/>
       <use x="127.246094" xlink:href="#DejaVuSans-30"/>
      </g>
     </g>
    </g>
    <g id="text_8">
     <!-- Elapsed -->
     <g transform="translate(423.157813 469.276563)scale(0.1 -0.1)">
      <defs>
       <path d="M 628 4666 
L 3578 4666 
L 3578 4134 
L 1259 4134 
L 1259 2753 
L 3481 2753 
L 3481 2222 
L 1259 2222 
L 1259 531 
L 3634 531 
L 3634 0 
L 628 0 
L 628 4666 
z
" id="DejaVuSans-45" transform="scale(0.015625)"/>
       <path d="M 603 4863 
L 1178 4863 
L 1178 0 
L 603 0 
L 603 4863 
z
" id="DejaVuSans-6c" transform="scale(0.015625)"/>
       <path d="M 2194 1759 
Q 1497 1759 1228 1600 
Q 959 1441 959 1056 
Q 959 750 1161 570 
Q 1363 391 1709 391 
Q 2188 391 2477 730 
Q 2766 1069 2766 1631 
L 2766 1759 
L 2194 1759 
z
M 3341 1997 
L 3341 0 
L 2766 0 
L 2766 531 
Q 2569 213 2275 61 
Q 1981 -91 1556 -91 
Q 1019 -91 701 211 
Q 384 513 384 1019 
Q 384 1609 779 1909 
Q 1175 2209 1959 2209 
L 2766 2209 
L 2766 2266 
Q 2766 2663 2505 2880 
Q 2244 3097 1772 3097 
Q 1472 3097 1187 3025 
Q 903 2953 641 2809 
L 641 3341 
Q 956 3463 1253 3523 
Q 1550 3584 1831 3584 
Q 2591 3584 2966 3190 
Q 3341 2797 3341 1997 
z
" id="DejaVuSans-61" transform="scale(0.015625)"/>
       <path d="M 1159 525 
L 1159 -1331 
L 581 -1331 
L 581 3500 
L 1159 3500 
L 1159 2969 
Q 1341 3281 1617 3432 
Q 1894 3584 2278 3584 
Q 2916 3584 3314 3078 
Q 3713 2572 3713 1747 
Q 3713 922 3314 415 
Q 2916 -91 2278 -91 
Q 1894 -91 1617 61 
Q 1341 213 1159 525 
z
M 3116 1747 
Q 3116 2381 2855 2742 
Q 2594 3103 2138 3103 
Q 1681 3103 1420 2742 
Q 1159 2381 1159 1747 
Q 1159 1113 1420 752 
Q 1681 391 2138 391 
Q 2594 391 2855 752 
Q 3116 1113 3116 1747 
z
" id="DejaVuSans-70" transform="scale(0.015625)"/>
       <path d="M 2834 3397 
L 2834 2853 
Q 2591 2978 2328 3040 
Q 2066 3103 1784 3103 
Q 1356 3103 1142 2972 
Q 928 2841 928 2578 
Q 928 2378 1081 2264 
Q 1234 2150 1697 2047 
L 1894 2003 
Q 2506 1872 2764 1633 
Q 3022 1394 3022 966 
Q 3022 478 2636 193 
Q 2250 -91 1575 -91 
Q 1294 -91 989 -36 
Q 684 19 347 128 
L 347 722 
Q 666 556 975 473 
Q 1284 391 1588 391 
Q 1994 391 2212 530 
Q 2431 669 2431 922 
Q 2431 1156 2273 1281 
Q 2116 1406 1581 1522 
L 1381 1569 
Q 847 1681 609 1914 
Q 372 2147 372 2553 
Q 372 3047 722 3315 
Q 1072 3584 1716 3584 
Q 2034 3584 2315 3537 
Q 2597 3491 2834 3397 
z
" id="DejaVuSans-73" transform="scale(0.015625)"/>
       <path d="M 3597 1894 
L 3597 1613 
L 953 1613 
Q 991 1019 1311 708 
Q 1631 397 2203 397 
Q 2534 397 2845 478 
Q 3156 559 3463 722 
L 3463 178 
Q 3153 47 2828 -22 
Q 2503 -91 2169 -91 
Q 1331 -91 842 396 
Q 353 884 353 1716 
Q 353 2575 817 3079 
Q 1281 3584 2069 3584 
Q 2775 3584 3186 3129 
Q 3597 2675 3597 1894 
z
M 3022 2063 
Q 3016 2534 2758 2815 
Q 2500 3097 2075 3097 
Q 1594 3097 1305 2825 
Q 1016 2553 972 2059 
L 3022 2063 
z
" id="DejaVuSans-65" transform="scale(0.015625)"/>
       <path d="M 2906 2969 
L 2906 4863 
L 3481 4863 
L 3481 0 
L 2906 0 
L 2906 525 
Q 2725 213 2448 61 
Q 2172 -91 1784 -91 
Q 1150 -91 751 415 
Q 353 922 353 1747 
Q 353 2572 751 3078 
Q 1150 3584 1784 3584 
Q 2172 3584 2448 3432 
Q 2725 3281 2906 2969 
z
M 947 1747 
Q 947 1113 1208 752 
Q 1469 391 1925 391 
Q 2381 391 2643 752 
Q 2906 1113 2906 1747 
Q 2906 2381 2643 2742 
Q 2381 3103 1925 3103 
Q 1469 3103 1208 2742 
Q 947 2381 947 1747 
z
" id="DejaVuSans-64" transform="scale(0.015625)"/>
      </defs>
      <use xlink:href="#DejaVuSans-45"/>
      <use x="63.183594" xlink:href="#DejaVuSans-6c"/>
      <use x="90.966797" xlink:href="#DejaVuSans-61"/>
      <use x="152.246094" xlink:href="#DejaVuSans-70"/>
      <use x="215.722656" xlink:href="#DejaVuSans-73"/>
      <use x="267.822266" xlink:href="#DejaVuSans-65"/>
      <use x="329.345703" xlink:href="#DejaVuSans-64"/>
     </g>
    </g>
   </g>
   <g id="matplotlib.axis_2">
    <g id="ytick_1">
     <g id="line2d_8">
      <defs>
       <path d="M 0 0 
L -3.5 0 
" id="m8a658016da" style="stroke:#000000;stroke-width:0.8;"/>
      </defs>
      <g>
       <use style="stroke:#000000;stroke-width:0.8;" x="108" xlink:href="#m8a658016da" y="422.161279"/>
      </g>
     </g>
     <g id="text_9">
      <!-- 0 -->
      <g transform="translate(94.6375 425.960497)scale(0.1 -0.1)">
       <use xlink:href="#DejaVuSans-30"/>
      </g>
     </g>
    </g>
    <g id="ytick_2">
     <g id="line2d_9">
      <g>
       <use style="stroke:#000000;stroke-width:0.8;" x="108" xlink:href="#m8a658016da" y="372.630418"/>
      </g>
     </g>
     <g id="text_10">
      <!-- 1 -->
      <g transform="translate(94.6375 376.429636)scale(0.1 -0.1)">
       <use xlink:href="#DejaVuSans-31"/>
      </g>
     </g>
    </g>
    <g id="ytick_3">
     <g id="line2d_10">
      <g>
       <use style="stroke:#000000;stroke-width:0.8;" x="108" xlink:href="#m8a658016da" y="323.099557"/>
      </g>
     </g>
     <g id="text_11">
      <!-- 2 -->
      <g transform="translate(94.6375 326.898776)scale(0.1 -0.1)">
       <use xlink:href="#DejaVuSans-32"/>
      </g>
     </g>
    </g>
    <g id="ytick_4">
     <g id="line2d_11">
      <g>
       <use style="stroke:#000000;stroke-width:0.8;" x="108" xlink:href="#m8a658016da" y="273.568696"/>
      </g>
     </g>
     <g id="text_12">
      <!-- 3 -->
      <g transform="translate(94.6375 277.367915)scale(0.1 -0.1)">
       <defs>
        <path d="M 2597 2516 
Q 3050 2419 3304 2112 
Q 3559 1806 3559 1356 
Q 3559 666 3084 287 
Q 2609 -91 1734 -91 
Q 1441 -91 1130 -33 
Q 819 25 488 141 
L 488 750 
Q 750 597 1062 519 
Q 1375 441 1716 441 
Q 2309 441 2620 675 
Q 2931 909 2931 1356 
Q 2931 1769 2642 2001 
Q 2353 2234 1838 2234 
L 1294 2234 
L 1294 2753 
L 1863 2753 
Q 2328 2753 2575 2939 
Q 2822 3125 2822 3475 
Q 2822 3834 2567 4026 
Q 2313 4219 1838 4219 
Q 1578 4219 1281 4162 
Q 984 4106 628 3988 
L 628 4550 
Q 988 4650 1302 4700 
Q 1616 4750 1894 4750 
Q 2613 4750 3031 4423 
Q 3450 4097 3450 3541 
Q 3450 3153 3228 2886 
Q 3006 2619 2597 2516 
z
" id="DejaVuSans-33" transform="scale(0.015625)"/>
       </defs>
       <use xlink:href="#DejaVuSans-33"/>
      </g>
     </g>
    </g>
    <g id="ytick_5">
     <g id="line2d_12">
      <g>
       <use style="stroke:#000000;stroke-width:0.8;" x="108" xlink:href="#m8a658016da" y="224.037835"/>
      </g>
     </g>
     <g id="text_13">
      <!-- 4 -->
      <g transform="translate(94.6375 227.837054)scale(0.1 -0.1)">
       <use xlink:href="#DejaVuSans-34"/>
      </g>
     </g>
    </g>
    <g id="ytick_6">
     <g id="line2d_13">
      <g>
       <use style="stroke:#000000;stroke-width:0.8;" x="108" xlink:href="#m8a658016da" y="174.506974"/>
      </g>
     </g>
     <g id="text_14">
      <!-- 5 -->
      <g transform="translate(94.6375 178.306193)scale(0.1 -0.1)">
       <defs>
        <path d="M 691 4666 
L 3169 4666 
L 3169 4134 
L 1269 4134 
L 1269 2991 
Q 1406 3038 1543 3061 
Q 1681 3084 1819 3084 
Q 2600 3084 3056 2656 
Q 3513 2228 3513 1497 
Q 3513 744 3044 326 
Q 2575 -91 1722 -91 
Q 1428 -91 1123 -41 
Q 819 9 494 109 
L 494 744 
Q 775 591 1075 516 
Q 1375 441 1709 441 
Q 2250 441 2565 725 
Q 2881 1009 2881 1497 
Q 2881 1984 2565 2268 
Q 2250 2553 1709 2553 
Q 1456 2553 1204 2497 
Q 953 2441 691 2322 
L 691 4666 
z
" id="DejaVuSans-35" transform="scale(0.015625)"/>
       </defs>
       <use xlink:href="#DejaVuSans-35"/>
      </g>
     </g>
    </g>
    <g id="ytick_7">
     <g id="line2d_14">
      <g>
       <use style="stroke:#000000;stroke-width:0.8;" x="108" xlink:href="#m8a658016da" y="124.976113"/>
      </g>
     </g>
     <g id="text_15">
      <!-- 6 -->
      <g transform="translate(94.6375 128.775332)scale(0.1 -0.1)">
       <use xlink:href="#DejaVuSans-36"/>
      </g>
     </g>
    </g>
    <g id="ytick_8">
     <g id="line2d_15">
      <g>
       <use style="stroke:#000000;stroke-width:0.8;" x="108" xlink:href="#m8a658016da" y="75.445252"/>
      </g>
     </g>
     <g id="text_16">
      <!-- 7 -->
      <g transform="translate(94.6375 79.244471)scale(0.1 -0.1)">
       <defs>
        <path d="M 525 4666 
L 3525 4666 
L 3525 4397 
L 1831 0 
L 1172 0 
L 2766 4134 
L 525 4134 
L 525 4666 
z
" id="DejaVuSans-37" transform="scale(0.015625)"/>
       </defs>
       <use xlink:href="#DejaVuSans-37"/>
      </g>
     </g>
    </g>
   </g>
   <g id="LineCollection_1">
    <path clip-path="url(#p2a98c903aa)" d="M 138.436364 353.808126 
L 138.436364 305.829713 
" style="fill:none;stroke:#1f77b4;stroke-width:1.5;"/>
    <path clip-path="url(#p2a98c903aa)" d="M 166.105785 356.458085 
L 166.105785 291.634173 
" style="fill:none;stroke:#1f77b4;stroke-width:1.5;"/>
    <path clip-path="url(#p2a98c903aa)" d="M 193.775207 362.573348 
L 193.775207 315.515151 
" style="fill:none;stroke:#1f77b4;stroke-width:1.5;"/>
    <path clip-path="url(#p2a98c903aa)" d="M 221.444628 371.811406 
L 221.444628 294.676328 
" style="fill:none;stroke:#1f77b4;stroke-width:1.5;"/>
    <path clip-path="url(#p2a98c903aa)" d="M 249.11405 369.104366 
L 249.11405 305.288383 
" style="fill:none;stroke:#1f77b4;stroke-width:1.5;"/>
    <path clip-path="url(#p2a98c903aa)" d="M 276.783471 366.093204 
L 276.783471 300.481705 
" style="fill:none;stroke:#1f77b4;stroke-width:1.5;"/>
    <path clip-path="url(#p2a98c903aa)" d="M 304.452893 350.100304 
L 304.452893 282.012183 
" style="fill:none;stroke:#1f77b4;stroke-width:1.5;"/>
    <path clip-path="url(#p2a98c903aa)" d="M 332.122314 343.355263 
L 332.122314 261.185165 
" style="fill:none;stroke:#1f77b4;stroke-width:1.5;"/>
    <path clip-path="url(#p2a98c903aa)" d="M 359.791736 335.744359 
L 359.791736 242.38635 
" style="fill:none;stroke:#1f77b4;stroke-width:1.5;"/>
    <path clip-path="url(#p2a98c903aa)" d="M 387.461157 310.776003 
L 387.461157 210.797818 
" style="fill:none;stroke:#1f77b4;stroke-width:1.5;"/>
    <path clip-path="url(#p2a98c903aa)" d="M 415.130579 303.236467 
L 415.130579 199.922313 
" style="fill:none;stroke:#1f77b4;stroke-width:1.5;"/>
    <path clip-path="url(#p2a98c903aa)" d="M 442.8 277.741326 
L 442.8 187.418392 
" style="fill:none;stroke:#1f77b4;stroke-width:1.5;"/>
    <path clip-path="url(#p2a98c903aa)" d="M 470.469421 270.364119 
L 470.469421 149.132529 
" style="fill:none;stroke:#1f77b4;stroke-width:1.5;"/>
    <path clip-path="url(#p2a98c903aa)" d="M 498.138843 236.360807 
L 498.138843 136.374709 
" style="fill:none;stroke:#1f77b4;stroke-width:1.5;"/>
    <path clip-path="url(#p2a98c903aa)" d="M 525.808264 226.200248 
L 525.808264 122.029206 
" style="fill:none;stroke:#1f77b4;stroke-width:1.5;"/>
    <path clip-path="url(#p2a98c903aa)" d="M 553.477686 218.635619 
L 553.477686 125.427893 
" style="fill:none;stroke:#1f77b4;stroke-width:1.5;"/>
    <path clip-path="url(#p2a98c903aa)" d="M 581.147107 204.621665 
L 581.147107 100.556939 
" style="fill:none;stroke:#1f77b4;stroke-width:1.5;"/>
    <path clip-path="url(#p2a98c903aa)" d="M 608.816529 211.041038 
L 608.816529 79.051097 
" style="fill:none;stroke:#1f77b4;stroke-width:1.5;"/>
    <path clip-path="url(#p2a98c903aa)" d="M 636.48595 214.841156 
L 636.48595 85.598384 
" style="fill:none;stroke:#1f77b4;stroke-width:1.5;"/>
    <path clip-path="url(#p2a98c903aa)" d="M 664.155372 214.676858 
L 664.155372 77.776364 
" style="fill:none;stroke:#1f77b4;stroke-width:1.5;"/>
    <path clip-path="url(#p2a98c903aa)" d="M 691.824793 222.595501 
L 691.824793 100.15908 
" style="fill:none;stroke:#1f77b4;stroke-width:1.5;"/>
    <path clip-path="url(#p2a98c903aa)" d="M 719.494215 197.751175 
L 719.494215 89.949189 
" style="fill:none;stroke:#1f77b4;stroke-width:1.5;"/>
    <path clip-path="url(#p2a98c903aa)" d="M 747.163636 201.025423 
L 747.163636 93.388528 
" style="fill:none;stroke:#1f77b4;stroke-width:1.5;"/>
   </g>
   <g id="LineCollection_2">
    <path clip-path="url(#p2a98c903aa)" d="M 138.436364 358.901486 
L 138.436364 346.767945 
" style="fill:none;stroke:#ff7f0e;stroke-width:1.5;"/>
    <path clip-path="url(#p2a98c903aa)" d="M 166.105785 361.96958 
L 166.105785 341.688733 
" style="fill:none;stroke:#ff7f0e;stroke-width:1.5;"/>
    <path clip-path="url(#p2a98c903aa)" d="M 193.775207 372.476675 
L 193.775207 346.975611 
" style="fill:none;stroke:#ff7f0e;stroke-width:1.5;"/>
    <path clip-path="url(#p2a98c903aa)" d="M 221.444628 364.973315 
L 221.444628 339.29573 
" style="fill:none;stroke:#ff7f0e;stroke-width:1.5;"/>
    <path clip-path="url(#p2a98c903aa)" d="M 249.11405 368.86855 
L 249.11405 342.287811 
" style="fill:none;stroke:#ff7f0e;stroke-width:1.5;"/>
    <path clip-path="url(#p2a98c903aa)" d="M 276.783471 374.710971 
L 276.783471 343.631758 
" style="fill:none;stroke:#ff7f0e;stroke-width:1.5;"/>
    <path clip-path="url(#p2a98c903aa)" d="M 304.452893 376.77633 
L 304.452893 347.432881 
" style="fill:none;stroke:#ff7f0e;stroke-width:1.5;"/>
    <path clip-path="url(#p2a98c903aa)" d="M 332.122314 371.497388 
L 332.122314 348.664941 
" style="fill:none;stroke:#ff7f0e;stroke-width:1.5;"/>
    <path clip-path="url(#p2a98c903aa)" d="M 359.791736 386.282191 
L 359.791736 347.416534 
" style="fill:none;stroke:#ff7f0e;stroke-width:1.5;"/>
    <path clip-path="url(#p2a98c903aa)" d="M 387.461157 384.925921 
L 387.461157 352.974126 
" style="fill:none;stroke:#ff7f0e;stroke-width:1.5;"/>
    <path clip-path="url(#p2a98c903aa)" d="M 415.130579 384.75216 
L 415.130579 357.155159 
" style="fill:none;stroke:#ff7f0e;stroke-width:1.5;"/>
    <path clip-path="url(#p2a98c903aa)" d="M 442.8 380.301793 
L 442.8 355.261529 
" style="fill:none;stroke:#ff7f0e;stroke-width:1.5;"/>
    <path clip-path="url(#p2a98c903aa)" d="M 470.469421 377.529118 
L 470.469421 362.329713 
" style="fill:none;stroke:#ff7f0e;stroke-width:1.5;"/>
    <path clip-path="url(#p2a98c903aa)" d="M 498.138843 378.738577 
L 498.138843 358.995346 
" style="fill:none;stroke:#ff7f0e;stroke-width:1.5;"/>
    <path clip-path="url(#p2a98c903aa)" d="M 525.808264 382.771164 
L 525.808264 364.861986 
" style="fill:none;stroke:#ff7f0e;stroke-width:1.5;"/>
    <path clip-path="url(#p2a98c903aa)" d="M 553.477686 383.149575 
L 553.477686 364.010126 
" style="fill:none;stroke:#ff7f0e;stroke-width:1.5;"/>
    <path clip-path="url(#p2a98c903aa)" d="M 581.147107 387.575325 
L 581.147107 369.735622 
" style="fill:none;stroke:#ff7f0e;stroke-width:1.5;"/>
    <path clip-path="url(#p2a98c903aa)" d="M 608.816529 386.355106 
L 608.816529 379.249026 
" style="fill:none;stroke:#ff7f0e;stroke-width:1.5;"/>
    <path clip-path="url(#p2a98c903aa)" d="M 636.48595 399.236745 
L 636.48595 377.900785 
" style="fill:none;stroke:#ff7f0e;stroke-width:1.5;"/>
    <path clip-path="url(#p2a98c903aa)" d="M 664.155372 409.111784 
L 664.155372 385.436978 
" style="fill:none;stroke:#ff7f0e;stroke-width:1.5;"/>
    <path clip-path="url(#p2a98c903aa)" d="M 691.824793 416.06102 
L 691.824793 397.886619 
" style="fill:none;stroke:#ff7f0e;stroke-width:1.5;"/>
    <path clip-path="url(#p2a98c903aa)" d="M 719.494215 421.36821 
L 719.494215 407.243651 
" style="fill:none;stroke:#ff7f0e;stroke-width:1.5;"/>
    <path clip-path="url(#p2a98c903aa)" d="M 747.163636 423.703636 
L 747.163636 413.046204 
" style="fill:none;stroke:#ff7f0e;stroke-width:1.5;"/>
   </g>
   <g id="LineCollection_3">
    <path clip-path="url(#p2a98c903aa)" d="M 138.436364 364.091022 
L 138.436364 344.702701 
" style="fill:none;stroke:#2ca02c;stroke-width:1.5;"/>
    <path clip-path="url(#p2a98c903aa)" d="M 166.105785 360.221404 
L 166.105785 345.874802 
" style="fill:none;stroke:#2ca02c;stroke-width:1.5;"/>
    <path clip-path="url(#p2a98c903aa)" d="M 193.775207 364.32403 
L 193.775207 350.677147 
" style="fill:none;stroke:#2ca02c;stroke-width:1.5;"/>
    <path clip-path="url(#p2a98c903aa)" d="M 221.444628 373.079697 
L 221.444628 340.595357 
" style="fill:none;stroke:#2ca02c;stroke-width:1.5;"/>
    <path clip-path="url(#p2a98c903aa)" d="M 249.11405 370.163937 
L 249.11405 341.896659 
" style="fill:none;stroke:#2ca02c;stroke-width:1.5;"/>
    <path clip-path="url(#p2a98c903aa)" d="M 276.783471 367.722858 
L 276.783471 332.373141 
" style="fill:none;stroke:#2ca02c;stroke-width:1.5;"/>
    <path clip-path="url(#p2a98c903aa)" d="M 304.452893 357.498237 
L 304.452893 317.424137 
" style="fill:none;stroke:#2ca02c;stroke-width:1.5;"/>
    <path clip-path="url(#p2a98c903aa)" d="M 332.122314 351.192156 
L 332.122314 310.019316 
" style="fill:none;stroke:#2ca02c;stroke-width:1.5;"/>
    <path clip-path="url(#p2a98c903aa)" d="M 359.791736 365.116192 
L 359.791736 287.395861 
" style="fill:none;stroke:#2ca02c;stroke-width:1.5;"/>
    <path clip-path="url(#p2a98c903aa)" d="M 387.461157 362.10666 
L 387.461157 276.969866 
" style="fill:none;stroke:#2ca02c;stroke-width:1.5;"/>
    <path clip-path="url(#p2a98c903aa)" d="M 415.130579 365.88753 
L 415.130579 283.132007 
" style="fill:none;stroke:#2ca02c;stroke-width:1.5;"/>
    <path clip-path="url(#p2a98c903aa)" d="M 442.8 355.336032 
L 442.8 285.308427 
" style="fill:none;stroke:#2ca02c;stroke-width:1.5;"/>
    <path clip-path="url(#p2a98c903aa)" d="M 470.469421 378.096037 
L 470.469421 275.825778 
" style="fill:none;stroke:#2ca02c;stroke-width:1.5;"/>
    <path clip-path="url(#p2a98c903aa)" d="M 498.138843 363.188994 
L 498.138843 305.92341 
" style="fill:none;stroke:#2ca02c;stroke-width:1.5;"/>
    <path clip-path="url(#p2a98c903aa)" d="M 525.808264 385.584347 
L 525.808264 313.242657 
" style="fill:none;stroke:#2ca02c;stroke-width:1.5;"/>
    <path clip-path="url(#p2a98c903aa)" d="M 553.477686 384.964987 
L 553.477686 315.919818 
" style="fill:none;stroke:#2ca02c;stroke-width:1.5;"/>
    <path clip-path="url(#p2a98c903aa)" d="M 581.147107 385.106916 
L 581.147107 317.843459 
" style="fill:none;stroke:#2ca02c;stroke-width:1.5;"/>
    <path clip-path="url(#p2a98c903aa)" d="M 608.816529 385.66904 
L 608.816529 327.674331 
" style="fill:none;stroke:#2ca02c;stroke-width:1.5;"/>
    <path clip-path="url(#p2a98c903aa)" d="M 636.48595 382.789725 
L 636.48595 340.340883 
" style="fill:none;stroke:#2ca02c;stroke-width:1.5;"/>
    <path clip-path="url(#p2a98c903aa)" d="M 664.155372 387.079533 
L 664.155372 341.310952 
" style="fill:none;stroke:#2ca02c;stroke-width:1.5;"/>
    <path clip-path="url(#p2a98c903aa)" d="M 691.824793 380.086822 
L 691.824793 345.990592 
" style="fill:none;stroke:#2ca02c;stroke-width:1.5;"/>
    <path clip-path="url(#p2a98c903aa)" d="M 719.494215 385.498229 
L 719.494215 345.914354 
" style="fill:none;stroke:#2ca02c;stroke-width:1.5;"/>
    <path clip-path="url(#p2a98c903aa)" d="M 747.163636 388.771743 
L 747.163636 346.905229 
" style="fill:none;stroke:#2ca02c;stroke-width:1.5;"/>
   </g>
   <g id="LineCollection_4">
    <path clip-path="url(#p2a98c903aa)" d="M 138.436364 359.029503 
L 138.436364 343.764959 
" style="fill:none;stroke:#d62728;stroke-width:1.5;"/>
    <path clip-path="url(#p2a98c903aa)" d="M 166.105785 356.542289 
L 166.105785 321.101855 
" style="fill:none;stroke:#d62728;stroke-width:1.5;"/>
    <path clip-path="url(#p2a98c903aa)" d="M 193.775207 364.361248 
L 193.775207 342.006371 
" style="fill:none;stroke:#d62728;stroke-width:1.5;"/>
    <path clip-path="url(#p2a98c903aa)" d="M 221.444628 366.040311 
L 221.444628 337.996816 
" style="fill:none;stroke:#d62728;stroke-width:1.5;"/>
    <path clip-path="url(#p2a98c903aa)" d="M 249.11405 362.630914 
L 249.11405 335.603358 
" style="fill:none;stroke:#d62728;stroke-width:1.5;"/>
    <path clip-path="url(#p2a98c903aa)" d="M 276.783471 363.166196 
L 276.783471 337.494567 
" style="fill:none;stroke:#d62728;stroke-width:1.5;"/>
    <path clip-path="url(#p2a98c903aa)" d="M 304.452893 359.897501 
L 304.452893 334.039308 
" style="fill:none;stroke:#d62728;stroke-width:1.5;"/>
    <path clip-path="url(#p2a98c903aa)" d="M 332.122314 340.45874 
L 332.122314 313.311099 
" style="fill:none;stroke:#d62728;stroke-width:1.5;"/>
    <path clip-path="url(#p2a98c903aa)" d="M 359.791736 327.284961 
L 359.791736 297.800732 
" style="fill:none;stroke:#d62728;stroke-width:1.5;"/>
    <path clip-path="url(#p2a98c903aa)" d="M 387.461157 315.486181 
L 387.461157 276.043014 
" style="fill:none;stroke:#d62728;stroke-width:1.5;"/>
    <path clip-path="url(#p2a98c903aa)" d="M 415.130579 317.647566 
L 415.130579 263.878145 
" style="fill:none;stroke:#d62728;stroke-width:1.5;"/>
    <path clip-path="url(#p2a98c903aa)" d="M 442.8 299.722032 
L 442.8 253.226667 
" style="fill:none;stroke:#d62728;stroke-width:1.5;"/>
    <path clip-path="url(#p2a98c903aa)" d="M 470.469421 315.867264 
L 470.469421 226.795114 
" style="fill:none;stroke:#d62728;stroke-width:1.5;"/>
    <path clip-path="url(#p2a98c903aa)" d="M 498.138843 306.051968 
L 498.138843 236.740742 
" style="fill:none;stroke:#d62728;stroke-width:1.5;"/>
    <path clip-path="url(#p2a98c903aa)" d="M 525.808264 301.855997 
L 525.808264 213.076545 
" style="fill:none;stroke:#d62728;stroke-width:1.5;"/>
    <path clip-path="url(#p2a98c903aa)" d="M 553.477686 310.265043 
L 553.477686 218.323686 
" style="fill:none;stroke:#d62728;stroke-width:1.5;"/>
    <path clip-path="url(#p2a98c903aa)" d="M 581.147107 315.75112 
L 581.147107 244.424314 
" style="fill:none;stroke:#d62728;stroke-width:1.5;"/>
    <path clip-path="url(#p2a98c903aa)" d="M 608.816529 324.163692 
L 608.816529 251.756909 
" style="fill:none;stroke:#d62728;stroke-width:1.5;"/>
    <path clip-path="url(#p2a98c903aa)" d="M 636.48595 320.716162 
L 636.48595 263.19058 
" style="fill:none;stroke:#d62728;stroke-width:1.5;"/>
    <path clip-path="url(#p2a98c903aa)" d="M 664.155372 327.457492 
L 664.155372 258.094813 
" style="fill:none;stroke:#d62728;stroke-width:1.5;"/>
    <path clip-path="url(#p2a98c903aa)" d="M 691.824793 326.381422 
L 691.824793 255.182428 
" style="fill:none;stroke:#d62728;stroke-width:1.5;"/>
    <path clip-path="url(#p2a98c903aa)" d="M 719.494215 329.324437 
L 719.494215 275.057158 
" style="fill:none;stroke:#d62728;stroke-width:1.5;"/>
    <path clip-path="url(#p2a98c903aa)" d="M 747.163636 330.614783 
L 747.163636 283.815187 
" style="fill:none;stroke:#d62728;stroke-width:1.5;"/>
   </g>
   <g id="LineCollection_5">
    <path clip-path="url(#p2a98c903aa)" d="M 138.436364 363.950172 
L 138.436364 346.198286 
" style="fill:none;stroke:#9467bd;stroke-width:1.5;"/>
    <path clip-path="url(#p2a98c903aa)" d="M 166.105785 357.575847 
L 166.105785 346.805551 
" style="fill:none;stroke:#9467bd;stroke-width:1.5;"/>
    <path clip-path="url(#p2a98c903aa)" d="M 193.775207 363.307668 
L 193.775207 350.861969 
" style="fill:none;stroke:#9467bd;stroke-width:1.5;"/>
    <path clip-path="url(#p2a98c903aa)" d="M 221.444628 376.557741 
L 221.444628 351.399709 
" style="fill:none;stroke:#9467bd;stroke-width:1.5;"/>
    <path clip-path="url(#p2a98c903aa)" d="M 249.11405 371.288488 
L 249.11405 356.547306 
" style="fill:none;stroke:#9467bd;stroke-width:1.5;"/>
    <path clip-path="url(#p2a98c903aa)" d="M 276.783471 371.735551 
L 276.783471 354.930491 
" style="fill:none;stroke:#9467bd;stroke-width:1.5;"/>
    <path clip-path="url(#p2a98c903aa)" d="M 304.452893 378.631198 
L 304.452893 357.296137 
" style="fill:none;stroke:#9467bd;stroke-width:1.5;"/>
    <path clip-path="url(#p2a98c903aa)" d="M 332.122314 378.934533 
L 332.122314 355.473734 
" style="fill:none;stroke:#9467bd;stroke-width:1.5;"/>
    <path clip-path="url(#p2a98c903aa)" d="M 359.791736 375.58705 
L 359.791736 359.575295 
" style="fill:none;stroke:#9467bd;stroke-width:1.5;"/>
    <path clip-path="url(#p2a98c903aa)" d="M 387.461157 371.010967 
L 387.461157 336.130984 
" style="fill:none;stroke:#9467bd;stroke-width:1.5;"/>
    <path clip-path="url(#p2a98c903aa)" d="M 415.130579 372.332889 
L 415.130579 335.909205 
" style="fill:none;stroke:#9467bd;stroke-width:1.5;"/>
    <path clip-path="url(#p2a98c903aa)" d="M 442.8 347.798168 
L 442.8 326.565844 
" style="fill:none;stroke:#9467bd;stroke-width:1.5;"/>
    <path clip-path="url(#p2a98c903aa)" d="M 470.469421 346.890108 
L 470.469421 316.181924 
" style="fill:none;stroke:#9467bd;stroke-width:1.5;"/>
    <path clip-path="url(#p2a98c903aa)" d="M 498.138843 353.370821 
L 498.138843 320.515186 
" style="fill:none;stroke:#9467bd;stroke-width:1.5;"/>
    <path clip-path="url(#p2a98c903aa)" d="M 525.808264 356.717396 
L 525.808264 334.350569 
" style="fill:none;stroke:#9467bd;stroke-width:1.5;"/>
    <path clip-path="url(#p2a98c903aa)" d="M 553.477686 368.182011 
L 553.477686 335.640877 
" style="fill:none;stroke:#9467bd;stroke-width:1.5;"/>
    <path clip-path="url(#p2a98c903aa)" d="M 581.147107 379.130896 
L 581.147107 345.529256 
" style="fill:none;stroke:#9467bd;stroke-width:1.5;"/>
    <path clip-path="url(#p2a98c903aa)" d="M 608.816529 388.187365 
L 608.816529 349.647588 
" style="fill:none;stroke:#9467bd;stroke-width:1.5;"/>
    <path clip-path="url(#p2a98c903aa)" d="M 636.48595 402.749644 
L 636.48595 373.393173 
" style="fill:none;stroke:#9467bd;stroke-width:1.5;"/>
    <path clip-path="url(#p2a98c903aa)" d="M 664.155372 411.062572 
L 664.155372 375.804269 
" style="fill:none;stroke:#9467bd;stroke-width:1.5;"/>
    <path clip-path="url(#p2a98c903aa)" d="M 691.824793 412.619479 
L 691.824793 387.374371 
" style="fill:none;stroke:#9467bd;stroke-width:1.5;"/>
    <path clip-path="url(#p2a98c903aa)" d="M 719.494215 418.711825 
L 719.494215 393.057451 
" style="fill:none;stroke:#9467bd;stroke-width:1.5;"/>
    <path clip-path="url(#p2a98c903aa)" d="M 747.163636 418.932296 
L 747.163636 401.235347 
" style="fill:none;stroke:#9467bd;stroke-width:1.5;"/>
   </g>
   <g id="line2d_16">
    <path clip-path="url(#p2a98c903aa)" d="M 138.436364 329.81892 
L 166.105785 324.046129 
L 193.775207 339.04425 
L 221.444628 333.243867 
L 249.11405 337.196374 
L 276.783471 333.287454 
L 304.452893 316.056244 
L 332.122314 302.270214 
L 359.791736 289.065354 
L 387.461157 260.786911 
L 415.130579 251.57939 
L 442.8 232.579859 
L 470.469421 209.748324 
L 498.138843 186.367758 
L 525.808264 174.114727 
L 553.477686 172.031756 
L 581.147107 152.589302 
L 608.816529 145.046068 
L 636.48595 150.21977 
L 664.155372 146.226611 
L 691.824793 161.37729 
L 719.494215 143.850182 
L 747.163636 147.206975 
" style="fill:none;stroke:#1f77b4;stroke-linecap:square;stroke-width:1.5;"/>
   </g>
   <g id="line2d_17">
    <path clip-path="url(#p2a98c903aa)" d="M 138.436364 352.834716 
L 166.105785 351.829157 
L 193.775207 359.726143 
L 221.444628 352.134523 
L 249.11405 355.578181 
L 276.783471 359.171365 
L 304.452893 362.104605 
L 332.122314 360.081165 
L 359.791736 366.849362 
L 387.461157 368.950024 
L 415.130579 370.953659 
L 442.8 367.781661 
L 470.469421 369.929416 
L 498.138843 368.866961 
L 525.808264 373.816575 
L 553.477686 373.579851 
L 581.147107 378.655474 
L 608.816529 382.802066 
L 636.48595 388.568765 
L 664.155372 397.274381 
L 691.824793 406.97382 
L 719.494215 414.305931 
L 747.163636 418.37492 
" style="fill:none;stroke:#ff7f0e;stroke-linecap:square;stroke-width:1.5;"/>
   </g>
   <g id="line2d_18">
    <path clip-path="url(#p2a98c903aa)" d="M 138.436364 354.396861 
L 166.105785 353.048103 
L 193.775207 357.500589 
L 221.444628 356.837527 
L 249.11405 356.030298 
L 276.783471 350.048 
L 304.452893 337.461187 
L 332.122314 330.605736 
L 359.791736 326.256026 
L 387.461157 319.538263 
L 415.130579 324.509768 
L 442.8 320.322229 
L 470.469421 326.960908 
L 498.138843 334.556202 
L 525.808264 349.413502 
L 553.477686 350.442402 
L 581.147107 351.475188 
L 608.816529 356.671686 
L 636.48595 361.565304 
L 664.155372 364.195243 
L 691.824793 363.038707 
L 719.494215 365.706291 
L 747.163636 367.838486 
" style="fill:none;stroke:#2ca02c;stroke-linecap:square;stroke-width:1.5;"/>
   </g>
   <g id="line2d_19">
    <path clip-path="url(#p2a98c903aa)" d="M 138.436364 351.397231 
L 166.105785 338.822072 
L 193.775207 353.183809 
L 221.444628 352.018564 
L 249.11405 349.117136 
L 276.783471 350.330382 
L 304.452893 346.968404 
L 332.122314 326.88492 
L 359.791736 312.542846 
L 387.461157 295.764597 
L 415.130579 290.762855 
L 442.8 276.47435 
L 470.469421 271.331189 
L 498.138843 271.396355 
L 525.808264 257.466271 
L 553.477686 264.294364 
L 581.147107 280.087717 
L 608.816529 287.9603 
L 636.48595 291.953371 
L 664.155372 292.776153 
L 691.824793 290.781925 
L 719.494215 302.190797 
L 747.163636 307.214985 
" style="fill:none;stroke:#d62728;stroke-linecap:square;stroke-width:1.5;"/>
   </g>
   <g id="line2d_20">
    <path clip-path="url(#p2a98c903aa)" d="M 138.436364 355.074229 
L 166.105785 352.190699 
L 193.775207 357.084819 
L 221.444628 363.978725 
L 249.11405 363.917897 
L 276.783471 363.333021 
L 304.452893 367.963668 
L 332.122314 367.204134 
L 359.791736 367.581172 
L 387.461157 353.570975 
L 415.130579 354.121047 
L 442.8 337.182006 
L 470.469421 331.536016 
L 498.138843 336.943003 
L 525.808264 345.533982 
L 553.477686 351.911444 
L 581.147107 362.330076 
L 608.816529 368.917476 
L 636.48595 388.071408 
L 664.155372 393.433421 
L 691.824793 399.996925 
L 719.494215 405.884638 
L 747.163636 410.083821 
" style="fill:none;stroke:#9467bd;stroke-linecap:square;stroke-width:1.5;"/>
   </g>
   <g id="patch_3">
    <path d="M 108 441 
L 108 60.48 
" style="fill:none;stroke:#000000;stroke-linecap:square;stroke-linejoin:miter;stroke-width:0.8;"/>
   </g>
   <g id="patch_4">
    <path d="M 777.6 441 
L 777.6 60.48 
" style="fill:none;stroke:#000000;stroke-linecap:square;stroke-linejoin:miter;stroke-width:0.8;"/>
   </g>
   <g id="patch_5">
    <path d="M 108 441 
L 777.6 441 
" style="fill:none;stroke:#000000;stroke-linecap:square;stroke-linejoin:miter;stroke-width:0.8;"/>
   </g>
   <g id="patch_6">
    <path d="M 108 60.48 
L 777.6 60.48 
" style="fill:none;stroke:#000000;stroke-linecap:square;stroke-linejoin:miter;stroke-width:0.8;"/>
   </g>
   <g id="legend_1">
    <g id="patch_7">
     <path d="M 497.7625 141.870625 
L 770.6 141.870625 
Q 772.6 141.870625 772.6 139.870625 
L 772.6 67.48 
Q 772.6 65.48 770.6 65.48 
L 497.7625 65.48 
Q 495.7625 65.48 495.7625 67.48 
L 495.7625 139.870625 
Q 495.7625 141.870625 497.7625 141.870625 
z
" style="fill:#ffffff;opacity:0.8;stroke:#cccccc;stroke-linejoin:miter;"/>
    </g>
    <g id="line2d_21">
     <path d="M 499.7625 73.578438 
L 519.7625 73.578438 
" style="fill:none;stroke:#1f77b4;stroke-linecap:square;stroke-width:1.5;"/>
    </g>
    <g id="line2d_22"/>
    <g id="text_17">
     <!-- ATRA -->
     <g transform="translate(527.7625 77.078438)scale(0.1 -0.1)">
      <defs>
       <path d="M 2188 4044 
L 1331 1722 
L 3047 1722 
L 2188 4044 
z
M 1831 4666 
L 2547 4666 
L 4325 0 
L 3669 0 
L 3244 1197 
L 1141 1197 
L 716 0 
L 50 0 
L 1831 4666 
z
" id="DejaVuSans-41" transform="scale(0.015625)"/>
       <path d="M -19 4666 
L 3928 4666 
L 3928 4134 
L 2272 4134 
L 2272 0 
L 1638 0 
L 1638 4134 
L -19 4134 
L -19 4666 
z
" id="DejaVuSans-54" transform="scale(0.015625)"/>
       <path d="M 2841 2188 
Q 3044 2119 3236 1894 
Q 3428 1669 3622 1275 
L 4263 0 
L 3584 0 
L 2988 1197 
Q 2756 1666 2539 1819 
Q 2322 1972 1947 1972 
L 1259 1972 
L 1259 0 
L 628 0 
L 628 4666 
L 2053 4666 
Q 2853 4666 3247 4331 
Q 3641 3997 3641 3322 
Q 3641 2881 3436 2590 
Q 3231 2300 2841 2188 
z
M 1259 4147 
L 1259 2491 
L 2053 2491 
Q 2509 2491 2742 2702 
Q 2975 2913 2975 3322 
Q 2975 3731 2742 3939 
Q 2509 4147 2053 4147 
L 1259 4147 
z
" id="DejaVuSans-52" transform="scale(0.015625)"/>
      </defs>
      <use xlink:href="#DejaVuSans-41"/>
      <use x="60.658203" xlink:href="#DejaVuSans-54"/>
      <use x="121.742188" xlink:href="#DejaVuSans-52"/>
      <use x="187.224609" xlink:href="#DejaVuSans-41"/>
     </g>
    </g>
    <g id="line2d_23">
     <path d="M 499.7625 88.256563 
L 519.7625 88.256563 
" style="fill:none;stroke:#ff7f0e;stroke-linecap:square;stroke-width:1.5;"/>
    </g>
    <g id="line2d_24"/>
    <g id="text_18">
     <!-- hsa-miR-19b-3p(0.0nM) + hsa-miR-2110(0.0nM) -->
     <g transform="translate(527.7625 91.756563)scale(0.1 -0.1)">
      <defs>
       <path d="M 3513 2113 
L 3513 0 
L 2938 0 
L 2938 2094 
Q 2938 2591 2744 2837 
Q 2550 3084 2163 3084 
Q 1697 3084 1428 2787 
Q 1159 2491 1159 1978 
L 1159 0 
L 581 0 
L 581 4863 
L 1159 4863 
L 1159 2956 
Q 1366 3272 1645 3428 
Q 1925 3584 2291 3584 
Q 2894 3584 3203 3211 
Q 3513 2838 3513 2113 
z
" id="DejaVuSans-68" transform="scale(0.015625)"/>
       <path d="M 313 2009 
L 1997 2009 
L 1997 1497 
L 313 1497 
L 313 2009 
z
" id="DejaVuSans-2d" transform="scale(0.015625)"/>
       <path d="M 3328 2828 
Q 3544 3216 3844 3400 
Q 4144 3584 4550 3584 
Q 5097 3584 5394 3201 
Q 5691 2819 5691 2113 
L 5691 0 
L 5113 0 
L 5113 2094 
Q 5113 2597 4934 2840 
Q 4756 3084 4391 3084 
Q 3944 3084 3684 2787 
Q 3425 2491 3425 1978 
L 3425 0 
L 2847 0 
L 2847 2094 
Q 2847 2600 2669 2842 
Q 2491 3084 2119 3084 
Q 1678 3084 1418 2786 
Q 1159 2488 1159 1978 
L 1159 0 
L 581 0 
L 581 3500 
L 1159 3500 
L 1159 2956 
Q 1356 3278 1631 3431 
Q 1906 3584 2284 3584 
Q 2666 3584 2933 3390 
Q 3200 3197 3328 2828 
z
" id="DejaVuSans-6d" transform="scale(0.015625)"/>
       <path d="M 603 3500 
L 1178 3500 
L 1178 0 
L 603 0 
L 603 3500 
z
M 603 4863 
L 1178 4863 
L 1178 4134 
L 603 4134 
L 603 4863 
z
" id="DejaVuSans-69" transform="scale(0.015625)"/>
       <path d="M 703 97 
L 703 672 
Q 941 559 1184 500 
Q 1428 441 1663 441 
Q 2288 441 2617 861 
Q 2947 1281 2994 2138 
Q 2813 1869 2534 1725 
Q 2256 1581 1919 1581 
Q 1219 1581 811 2004 
Q 403 2428 403 3163 
Q 403 3881 828 4315 
Q 1253 4750 1959 4750 
Q 2769 4750 3195 4129 
Q 3622 3509 3622 2328 
Q 3622 1225 3098 567 
Q 2575 -91 1691 -91 
Q 1453 -91 1209 -44 
Q 966 3 703 97 
z
M 1959 2075 
Q 2384 2075 2632 2365 
Q 2881 2656 2881 3163 
Q 2881 3666 2632 3958 
Q 2384 4250 1959 4250 
Q 1534 4250 1286 3958 
Q 1038 3666 1038 3163 
Q 1038 2656 1286 2365 
Q 1534 2075 1959 2075 
z
" id="DejaVuSans-39" transform="scale(0.015625)"/>
       <path d="M 3116 1747 
Q 3116 2381 2855 2742 
Q 2594 3103 2138 3103 
Q 1681 3103 1420 2742 
Q 1159 2381 1159 1747 
Q 1159 1113 1420 752 
Q 1681 391 2138 391 
Q 2594 391 2855 752 
Q 3116 1113 3116 1747 
z
M 1159 2969 
Q 1341 3281 1617 3432 
Q 1894 3584 2278 3584 
Q 2916 3584 3314 3078 
Q 3713 2572 3713 1747 
Q 3713 922 3314 415 
Q 2916 -91 2278 -91 
Q 1894 -91 1617 61 
Q 1341 213 1159 525 
L 1159 0 
L 581 0 
L 581 4863 
L 1159 4863 
L 1159 2969 
z
" id="DejaVuSans-62" transform="scale(0.015625)"/>
       <path d="M 1984 4856 
Q 1566 4138 1362 3434 
Q 1159 2731 1159 2009 
Q 1159 1288 1364 580 
Q 1569 -128 1984 -844 
L 1484 -844 
Q 1016 -109 783 600 
Q 550 1309 550 2009 
Q 550 2706 781 3412 
Q 1013 4119 1484 4856 
L 1984 4856 
z
" id="DejaVuSans-28" transform="scale(0.015625)"/>
       <path d="M 684 794 
L 1344 794 
L 1344 0 
L 684 0 
L 684 794 
z
" id="DejaVuSans-2e" transform="scale(0.015625)"/>
       <path d="M 3513 2113 
L 3513 0 
L 2938 0 
L 2938 2094 
Q 2938 2591 2744 2837 
Q 2550 3084 2163 3084 
Q 1697 3084 1428 2787 
Q 1159 2491 1159 1978 
L 1159 0 
L 581 0 
L 581 3500 
L 1159 3500 
L 1159 2956 
Q 1366 3272 1645 3428 
Q 1925 3584 2291 3584 
Q 2894 3584 3203 3211 
Q 3513 2838 3513 2113 
z
" id="DejaVuSans-6e" transform="scale(0.015625)"/>
       <path d="M 628 4666 
L 1569 4666 
L 2759 1491 
L 3956 4666 
L 4897 4666 
L 4897 0 
L 4281 0 
L 4281 4097 
L 3078 897 
L 2444 897 
L 1241 4097 
L 1241 0 
L 628 0 
L 628 4666 
z
" id="DejaVuSans-4d" transform="scale(0.015625)"/>
       <path d="M 513 4856 
L 1013 4856 
Q 1481 4119 1714 3412 
Q 1947 2706 1947 2009 
Q 1947 1309 1714 600 
Q 1481 -109 1013 -844 
L 513 -844 
Q 928 -128 1133 580 
Q 1338 1288 1338 2009 
Q 1338 2731 1133 3434 
Q 928 4138 513 4856 
z
" id="DejaVuSans-29" transform="scale(0.015625)"/>
       <path id="DejaVuSans-20" transform="scale(0.015625)"/>
       <path d="M 2944 4013 
L 2944 2272 
L 4684 2272 
L 4684 1741 
L 2944 1741 
L 2944 0 
L 2419 0 
L 2419 1741 
L 678 1741 
L 678 2272 
L 2419 2272 
L 2419 4013 
L 2944 4013 
z
" id="DejaVuSans-2b" transform="scale(0.015625)"/>
      </defs>
      <use xlink:href="#DejaVuSans-68"/>
      <use x="63.378906" xlink:href="#DejaVuSans-73"/>
      <use x="115.478516" xlink:href="#DejaVuSans-61"/>
      <use x="176.757812" xlink:href="#DejaVuSans-2d"/>
      <use x="212.841797" xlink:href="#DejaVuSans-6d"/>
      <use x="310.253906" xlink:href="#DejaVuSans-69"/>
      <use x="338.037109" xlink:href="#DejaVuSans-52"/>
      <use x="403.519531" xlink:href="#DejaVuSans-2d"/>
      <use x="439.603516" xlink:href="#DejaVuSans-31"/>
      <use x="503.226562" xlink:href="#DejaVuSans-39"/>
      <use x="566.849609" xlink:href="#DejaVuSans-62"/>
      <use x="630.326172" xlink:href="#DejaVuSans-2d"/>
      <use x="666.410156" xlink:href="#DejaVuSans-33"/>
      <use x="730.033203" xlink:href="#DejaVuSans-70"/>
      <use x="793.509766" xlink:href="#DejaVuSans-28"/>
      <use x="832.523438" xlink:href="#DejaVuSans-30"/>
      <use x="896.146484" xlink:href="#DejaVuSans-2e"/>
      <use x="927.933594" xlink:href="#DejaVuSans-30"/>
      <use x="991.556641" xlink:href="#DejaVuSans-6e"/>
      <use x="1054.935547" xlink:href="#DejaVuSans-4d"/>
      <use x="1141.214844" xlink:href="#DejaVuSans-29"/>
      <use x="1180.228516" xlink:href="#DejaVuSans-20"/>
      <use x="1212.015625" xlink:href="#DejaVuSans-2b"/>
      <use x="1295.804688" xlink:href="#DejaVuSans-20"/>
      <use x="1327.591797" xlink:href="#DejaVuSans-68"/>
      <use x="1390.970703" xlink:href="#DejaVuSans-73"/>
      <use x="1443.070312" xlink:href="#DejaVuSans-61"/>
      <use x="1504.349609" xlink:href="#DejaVuSans-2d"/>
      <use x="1540.433594" xlink:href="#DejaVuSans-6d"/>
      <use x="1637.845703" xlink:href="#DejaVuSans-69"/>
      <use x="1665.628906" xlink:href="#DejaVuSans-52"/>
      <use x="1731.111328" xlink:href="#DejaVuSans-2d"/>
      <use x="1767.195312" xlink:href="#DejaVuSans-32"/>
      <use x="1830.818359" xlink:href="#DejaVuSans-31"/>
      <use x="1894.441406" xlink:href="#DejaVuSans-31"/>
      <use x="1958.064453" xlink:href="#DejaVuSans-30"/>
      <use x="2021.6875" xlink:href="#DejaVuSans-28"/>
      <use x="2060.701172" xlink:href="#DejaVuSans-30"/>
      <use x="2124.324219" xlink:href="#DejaVuSans-2e"/>
      <use x="2156.111328" xlink:href="#DejaVuSans-30"/>
      <use x="2219.734375" xlink:href="#DejaVuSans-6e"/>
      <use x="2283.113281" xlink:href="#DejaVuSans-4d"/>
      <use x="2369.392578" xlink:href="#DejaVuSans-29"/>
     </g>
    </g>
    <g id="line2d_25">
     <path d="M 499.7625 102.934687 
L 519.7625 102.934687 
" style="fill:none;stroke:#2ca02c;stroke-linecap:square;stroke-width:1.5;"/>
    </g>
    <g id="line2d_26"/>
    <g id="text_19">
     <!-- hsa-miR-19b-3p(0.0nM) + hsa-miR-2110(5.0nM) -->
     <g transform="translate(527.7625 106.434687)scale(0.1 -0.1)">
      <use xlink:href="#DejaVuSans-68"/>
      <use x="63.378906" xlink:href="#DejaVuSans-73"/>
      <use x="115.478516" xlink:href="#DejaVuSans-61"/>
      <use x="176.757812" xlink:href="#DejaVuSans-2d"/>
      <use x="212.841797" xlink:href="#DejaVuSans-6d"/>
      <use x="310.253906" xlink:href="#DejaVuSans-69"/>
      <use x="338.037109" xlink:href="#DejaVuSans-52"/>
      <use x="403.519531" xlink:href="#DejaVuSans-2d"/>
      <use x="439.603516" xlink:href="#DejaVuSans-31"/>
      <use x="503.226562" xlink:href="#DejaVuSans-39"/>
      <use x="566.849609" xlink:href="#DejaVuSans-62"/>
      <use x="630.326172" xlink:href="#DejaVuSans-2d"/>
      <use x="666.410156" xlink:href="#DejaVuSans-33"/>
      <use x="730.033203" xlink:href="#DejaVuSans-70"/>
      <use x="793.509766" xlink:href="#DejaVuSans-28"/>
      <use x="832.523438" xlink:href="#DejaVuSans-30"/>
      <use x="896.146484" xlink:href="#DejaVuSans-2e"/>
      <use x="927.933594" xlink:href="#DejaVuSans-30"/>
      <use x="991.556641" xlink:href="#DejaVuSans-6e"/>
      <use x="1054.935547" xlink:href="#DejaVuSans-4d"/>
      <use x="1141.214844" xlink:href="#DejaVuSans-29"/>
      <use x="1180.228516" xlink:href="#DejaVuSans-20"/>
      <use x="1212.015625" xlink:href="#DejaVuSans-2b"/>
      <use x="1295.804688" xlink:href="#DejaVuSans-20"/>
      <use x="1327.591797" xlink:href="#DejaVuSans-68"/>
      <use x="1390.970703" xlink:href="#DejaVuSans-73"/>
      <use x="1443.070312" xlink:href="#DejaVuSans-61"/>
      <use x="1504.349609" xlink:href="#DejaVuSans-2d"/>
      <use x="1540.433594" xlink:href="#DejaVuSans-6d"/>
      <use x="1637.845703" xlink:href="#DejaVuSans-69"/>
      <use x="1665.628906" xlink:href="#DejaVuSans-52"/>
      <use x="1731.111328" xlink:href="#DejaVuSans-2d"/>
      <use x="1767.195312" xlink:href="#DejaVuSans-32"/>
      <use x="1830.818359" xlink:href="#DejaVuSans-31"/>
      <use x="1894.441406" xlink:href="#DejaVuSans-31"/>
      <use x="1958.064453" xlink:href="#DejaVuSans-30"/>
      <use x="2021.6875" xlink:href="#DejaVuSans-28"/>
      <use x="2060.701172" xlink:href="#DejaVuSans-35"/>
      <use x="2124.324219" xlink:href="#DejaVuSans-2e"/>
      <use x="2156.111328" xlink:href="#DejaVuSans-30"/>
      <use x="2219.734375" xlink:href="#DejaVuSans-6e"/>
      <use x="2283.113281" xlink:href="#DejaVuSans-4d"/>
      <use x="2369.392578" xlink:href="#DejaVuSans-29"/>
     </g>
    </g>
    <g id="line2d_27">
     <path d="M 499.7625 117.612813 
L 519.7625 117.612813 
" style="fill:none;stroke:#d62728;stroke-linecap:square;stroke-width:1.5;"/>
    </g>
    <g id="line2d_28"/>
    <g id="text_20">
     <!-- hsa-miR-19b-3p(0.5nM) + hsa-miR-2110(2.5nM) -->
     <g transform="translate(527.7625 121.112813)scale(0.1 -0.1)">
      <use xlink:href="#DejaVuSans-68"/>
      <use x="63.378906" xlink:href="#DejaVuSans-73"/>
      <use x="115.478516" xlink:href="#DejaVuSans-61"/>
      <use x="176.757812" xlink:href="#DejaVuSans-2d"/>
      <use x="212.841797" xlink:href="#DejaVuSans-6d"/>
      <use x="310.253906" xlink:href="#DejaVuSans-69"/>
      <use x="338.037109" xlink:href="#DejaVuSans-52"/>
      <use x="403.519531" xlink:href="#DejaVuSans-2d"/>
      <use x="439.603516" xlink:href="#DejaVuSans-31"/>
      <use x="503.226562" xlink:href="#DejaVuSans-39"/>
      <use x="566.849609" xlink:href="#DejaVuSans-62"/>
      <use x="630.326172" xlink:href="#DejaVuSans-2d"/>
      <use x="666.410156" xlink:href="#DejaVuSans-33"/>
      <use x="730.033203" xlink:href="#DejaVuSans-70"/>
      <use x="793.509766" xlink:href="#DejaVuSans-28"/>
      <use x="832.523438" xlink:href="#DejaVuSans-30"/>
      <use x="896.146484" xlink:href="#DejaVuSans-2e"/>
      <use x="927.933594" xlink:href="#DejaVuSans-35"/>
      <use x="991.556641" xlink:href="#DejaVuSans-6e"/>
      <use x="1054.935547" xlink:href="#DejaVuSans-4d"/>
      <use x="1141.214844" xlink:href="#DejaVuSans-29"/>
      <use x="1180.228516" xlink:href="#DejaVuSans-20"/>
      <use x="1212.015625" xlink:href="#DejaVuSans-2b"/>
      <use x="1295.804688" xlink:href="#DejaVuSans-20"/>
      <use x="1327.591797" xlink:href="#DejaVuSans-68"/>
      <use x="1390.970703" xlink:href="#DejaVuSans-73"/>
      <use x="1443.070312" xlink:href="#DejaVuSans-61"/>
      <use x="1504.349609" xlink:href="#DejaVuSans-2d"/>
      <use x="1540.433594" xlink:href="#DejaVuSans-6d"/>
      <use x="1637.845703" xlink:href="#DejaVuSans-69"/>
      <use x="1665.628906" xlink:href="#DejaVuSans-52"/>
      <use x="1731.111328" xlink:href="#DejaVuSans-2d"/>
      <use x="1767.195312" xlink:href="#DejaVuSans-32"/>
      <use x="1830.818359" xlink:href="#DejaVuSans-31"/>
      <use x="1894.441406" xlink:href="#DejaVuSans-31"/>
      <use x="1958.064453" xlink:href="#DejaVuSans-30"/>
      <use x="2021.6875" xlink:href="#DejaVuSans-28"/>
      <use x="2060.701172" xlink:href="#DejaVuSans-32"/>
      <use x="2124.324219" xlink:href="#DejaVuSans-2e"/>
      <use x="2156.111328" xlink:href="#DejaVuSans-35"/>
      <use x="2219.734375" xlink:href="#DejaVuSans-6e"/>
      <use x="2283.113281" xlink:href="#DejaVuSans-4d"/>
      <use x="2369.392578" xlink:href="#DejaVuSans-29"/>
     </g>
    </g>
    <g id="line2d_29">
     <path d="M 499.7625 132.290938 
L 519.7625 132.290938 
" style="fill:none;stroke:#9467bd;stroke-linecap:square;stroke-width:1.5;"/>
    </g>
    <g id="line2d_30"/>
    <g id="text_21">
     <!-- hsa-miR-19b-3p(5.0nM) + hsa-miR-2110(0.0nM) -->
     <g transform="translate(527.7625 135.790938)scale(0.1 -0.1)">
      <use xlink:href="#DejaVuSans-68"/>
      <use x="63.378906" xlink:href="#DejaVuSans-73"/>
      <use x="115.478516" xlink:href="#DejaVuSans-61"/>
      <use x="176.757812" xlink:href="#DejaVuSans-2d"/>
      <use x="212.841797" xlink:href="#DejaVuSans-6d"/>
      <use x="310.253906" xlink:href="#DejaVuSans-69"/>
      <use x="338.037109" xlink:href="#DejaVuSans-52"/>
      <use x="403.519531" xlink:href="#DejaVuSans-2d"/>
      <use x="439.603516" xlink:href="#DejaVuSans-31"/>
      <use x="503.226562" xlink:href="#DejaVuSans-39"/>
      <use x="566.849609" xlink:href="#DejaVuSans-62"/>
      <use x="630.326172" xlink:href="#DejaVuSans-2d"/>
      <use x="666.410156" xlink:href="#DejaVuSans-33"/>
      <use x="730.033203" xlink:href="#DejaVuSans-70"/>
      <use x="793.509766" xlink:href="#DejaVuSans-28"/>
      <use x="832.523438" xlink:href="#DejaVuSans-35"/>
      <use x="896.146484" xlink:href="#DejaVuSans-2e"/>
      <use x="927.933594" xlink:href="#DejaVuSans-30"/>
      <use x="991.556641" xlink:href="#DejaVuSans-6e"/>
      <use x="1054.935547" xlink:href="#DejaVuSans-4d"/>
      <use x="1141.214844" xlink:href="#DejaVuSans-29"/>
      <use x="1180.228516" xlink:href="#DejaVuSans-20"/>
      <use x="1212.015625" xlink:href="#DejaVuSans-2b"/>
      <use x="1295.804688" xlink:href="#DejaVuSans-20"/>
      <use x="1327.591797" xlink:href="#DejaVuSans-68"/>
      <use x="1390.970703" xlink:href="#DejaVuSans-73"/>
      <use x="1443.070312" xlink:href="#DejaVuSans-61"/>
      <use x="1504.349609" xlink:href="#DejaVuSans-2d"/>
      <use x="1540.433594" xlink:href="#DejaVuSans-6d"/>
      <use x="1637.845703" xlink:href="#DejaVuSans-69"/>
      <use x="1665.628906" xlink:href="#DejaVuSans-52"/>
      <use x="1731.111328" xlink:href="#DejaVuSans-2d"/>
      <use x="1767.195312" xlink:href="#DejaVuSans-32"/>
      <use x="1830.818359" xlink:href="#DejaVuSans-31"/>
      <use x="1894.441406" xlink:href="#DejaVuSans-31"/>
      <use x="1958.064453" xlink:href="#DejaVuSans-30"/>
      <use x="2021.6875" xlink:href="#DejaVuSans-28"/>
      <use x="2060.701172" xlink:href="#DejaVuSans-30"/>
      <use x="2124.324219" xlink:href="#DejaVuSans-2e"/>
      <use x="2156.111328" xlink:href="#DejaVuSans-30"/>
      <use x="2219.734375" xlink:href="#DejaVuSans-6e"/>
      <use x="2283.113281" xlink:href="#DejaVuSans-4d"/>
      <use x="2369.392578" xlink:href="#DejaVuSans-29"/>
     </g>
    </g>
   </g>
  </g>
 </g>
 <defs>
  <clipPath id="p2a98c903aa">
   <rect height="380.52" width="669.6" x="108" y="60.48"/>
  </clipPath>
 </defs>
</svg>
